#!OML:ASF F:\VICON\USERDATA\INSTALL\rory3\rory3.ASF
:FULLY-SPECIFIED
:DEGREES
36
root 0.17544060035873493 17.81795810378197 -2.9422804024930524 -2.2075190302896837 2.6213247763299035 1.5266132453932735
lfemur 15.809792635898638 -4.604054792545012 -25.938135340360724
ltibia 20.52029940952198
lfoot -6.6314578619905475 -7.456470046218865
ltoes -18.120430339310186
rfemur -28.825172938996705 5.083496034284805 18.651049434529067
rtibia 22.64436574660037
rfoot -3.970041044699369 -7.692231337860486
rtoes -0.8317693864819877
lowerback 9.07471305298035 -1.892600528525119 -4.236362936550273
upperback 0.38092238457932265 -2.8954282173676 1.779789361997024
thorax -4.457276089370349 -1.331571363025252 4.215826140011108
lowerneck -16.831365491577962 -2.7729995907294565 -2.0520053832168226
upperneck 21.698280993479493 -3.384817112275912 -0.1928460239906319
head 9.724332291865911 -1.7210156398170122 -0.1228352917010597
lclavicle -2.777220407566034e-15 1.477765712678142e-16
lhumerus -23.66624813571623 -4.946121747893838 82.84098667545389
lradius 31.447486993160524
lwrist 7.8076551820064415
lhand -28.959777438819735 25.932045007931467
lfingers 7.12502
lthumb -2.3127972054063717 55.88675523941989
rclavicle -2.777220407566034e-15 1.477765712678142e-16
rhumerus -33.48755194458784 -28.271951675800537 -73.49954047618216
rradius 19.179684404414722
rwrist 13.79119392895816
rhand -17.424498283902118 21.386914358586637
rfingers 7.12502
rthumb 8.825621721534706 -8.403868693240947
37
root 0.0731407944250308 17.91156046318352 -1.6824507049623438 -2.7477413168140856 3.3417593075121315 0.25314457680052715
lfemur 14.043846466577751 -4.088936432554043 -22.93874117906947
ltibia 31.817480787512405
lfoot 1.5312928138557522 -11.746600962596704
ltoes -18.251753333704386
rfemur -26.56485528343827 5.042995979867479 21.439746757137435
rtibia 25.86862224441559
rfoot -3.520738549707924 -5.685287648918076
rtoes 3.1425699836800858
lowerback 9.155673272253948 -2.054579558152499 -3.0449352219167523
upperback 0.3816827264458711 -2.955832788646332 2.3668959627355375
thorax -4.504619004671866 -1.3798097439563604 4.3180504569393605
lowerneck -16.74929528965245 -2.733961955473515 -1.954647503749462
upperneck 21.86537414053442 -3.3208756065693676 -0.28327102757050227
head 9.767209362213169 -1.7002904700142247 -0.15273982258083643
lclavicle -2.0858338385195774e-15 7.849123420508296e-16
lhumerus -24.94270391231062 -4.680266754460111 83.40008623878043
lradius 31.241265843544063
lwrist 7.495465517182889
lhand -28.181441312219604 26.18673490145797
lfingers 7.12502
lthumb -1.5611683760887347 56.142294884663535
rclavicle -2.0858338385195774e-15 7.849123420508296e-16
rhumerus -34.06602321788195 -29.518723961707725 -72.33092596598489
rradius 18.538574108521356
rwrist 14.986842553350233
rhand -17.115816566370167 21.506603536396216
rfingers 7.12502
rthumb 9.123530819339265 -8.27478946418439
38
root -0.032732807501170136 18.01655808555267 -0.6060655166865896 -3.2984551402546303 3.647545788181405 -1.3887551234137305
lfemur 9.216016051125202 -3.093842812592023 -19.674441192019483
ltibia 44.10924046203665
lfoot 9.226346362134922 -15.226115963952012
ltoes -14.916971367938714
rfemur -23.297402673522 5.3210416667793785 24.24876561139879
rtibia 27.36889097337743
rfoot -4.088138914906198 -4.955314738179343
rtoes 6.056091074637036
lowerback 9.293428918892031 -2.0823680517771175 -1.6510244239683745
upperback 0.37271977456682687 -2.814378093378428 2.8468958206908126
thorax -4.62203174328637 -1.3328328382136212 4.0418829832152445
lowerneck -16.649794158362177 -2.753113379389833 -1.9162475548857416
upperneck 21.97255746651938 -3.36243706018122 -0.23877654274898974
head 9.779611084448643 -1.714558476599155 -0.15183672864335293
lclavicle -2.024352448696866e-15 8.41394994976978e-16
lhumerus -26.63492735479881 -4.674433278106885 83.97037468890939
lradius 30.495509108207333
lwrist 6.708389445650058
lhand -27.351197808423205 25.791827554763188
lfingers 7.12502
lthumb -0.7593476653066105 55.753756459600176
rclavicle -2.024352448696866e-15 8.41394994976978e-16
rhumerus -34.12256278121678 -29.292638159686526 -72.36397478330409
rradius 18.465216758002974
rwrist 14.557208020426199
rhand -16.925211532229827 22.013520803943777
rfingers 7.12502
rthumb 9.307485330963711 -7.761206218994581
39
root -0.13265526377429876 18.11083246703717 0.01017385139920357 -3.838876803595689 3.4668001878067307 -2.909730991083844
lfemur 3.0644343212964475 -1.9226409408002998 -17.236582440311842
ltibia 54.37437110297407
lfoot 12.758219347366328 -16.081519554870006
ltoes -10.837331487152067
rfemur -20.43574360801651 5.4622899987378375 26.356256911227618
rtibia 27.47803682889832
rfoot -5.651788188348732 -5.5483218377332175
rtoes 7.191421054226466
lowerback 9.432491118450606 -1.964365559655092 -0.5751610749602236
upperback 0.4050361599047304 -2.5221279681108766 3.0711823337215876
thorax -4.738434266784859 -1.2065152476834873 3.522038540998485
lowerneck -16.544398315548175 -2.8399209673551815 -1.9271701053099208
upperneck 21.936701182536044 -3.5273772993166927 -0.03842378198185248
head 9.73798272645266 -1.7695956011417144 -0.12188860675996263
lclavicle -2.6473884915325675e-15 2.6741947998098314e-16
lhumerus -28.240740133842113 -5.0356474796595485 84.30583132382425
lradius 29.405857385413377
lwrist 5.595123598103073
lhand -26.811236949590246 25.48249750660464
lfingers 7.12502
lthumb -0.2378769881750168 55.44996969722606
rclavicle -2.6473884915325675e-15 2.6741947998098314e-16
rhumerus -33.74568321749315 -28.250274938671275 -73.39038791224299
rradius 18.757199530843973
rwrist 13.083836082426807
rhand -17.10300085130874 22.488386969738006
rfingers 7.12502
rthumb 9.135920624699315 -7.2918796557197965
